<?xml version="1.0" encoding="UTF-8" standalone="no"?>
<svg
   xmlns:dc="http://purl.org/dc/elements/1.1/"
   xmlns:cc="http://creativecommons.org/ns#"
   xmlns:rdf="http://www.w3.org/1999/02/22-rdf-syntax-ns#"
   xmlns:svg="http://www.w3.org/2000/svg"
   xmlns="http://www.w3.org/2000/svg"
   xmlns:xlink="http://www.w3.org/1999/xlink"
   id="svg7"
   xml:space="preserve"
   viewBox="0 0 1024 768"
   y="0px"
   x="0px"
   version="1.1"><metadata
     id="metadata13"><rdf:RDF><cc:Work
         rdf:about=""><dc:format>image/svg+xml</dc:format><dc:type
           rdf:resource="http://purl.org/dc/dcmitype/StillImage" /></cc:Work></rdf:RDF></metadata><defs
     id="defs11" /><g
     id="g3"
     transform="matrix(1.5,0,0,1.2,512,384)"><path
       style="fill:#ff5d00"
       d="m 152.4,-201.9 c 46.6,26 86.9,68.5 97.2,116.9 10.4,48.3 -9.3,102.5 -32.2,150.3 -22.9,47.8 -49,89.1 -85.8,121.8 -36.8,32.8 -84.2,56.8 -135.5,62.2 -51.4,5.4 -106.6,-7.9 -148.6,-38.9 -42,-31 -70.8,-79.8 -87.5,-132.2 -16.8,-52.4 -21.5,-108.6 -2.2,-153.4 19.4,-44.8 62.9,-78.2 107.3,-105 44.4,-26.7 89.6,-46.8 138.7,-52 49.1,-5.3 102,4.2 148.6,30.3 z"
       id="path" /></g><animate
     fill="freeze"
     values="M120.2,-176.8C149.6,-144.2,162.8,-100.7,175.5,-57.9C188.3,-15,200.7,27.1,195.6,70.1C190.6,113,168.2,156.8,132.7,178C97.2,199.1,48.6,197.5,4.9,190.8C-38.8,184.1,-77.6,172.1,-115.3,151.7C-153,131.3,-189.7,102.4,-205.6,64.2C-221.6,26.1,-216.8,-21.4,-204,-67.9C-191.2,-114.4,-170.2,-160,-134.9,-190.6C-99.5,-221.3,-49.8,-237.2,-2.2,-234.2C45.5,-231.2,90.9,-209.5,120.2,-176.8Z; M152.4,-201.9C199,-175.9,239.3,-133.4,249.6,-85C260,-36.7,240.3,17.5,217.4,65.3C194.5,113.1,168.4,154.4,131.6,187.1C94.8,219.9,47.4,243.9,-3.9,249.3C-55.3,254.7,-110.5,241.4,-152.5,210.4C-194.5,179.4,-223.3,130.6,-240,78.2C-256.8,25.8,-261.5,-30.4,-242.2,-75.2C-222.8,-120,-179.3,-153.4,-134.9,-180.2C-90.5,-206.9,-45.3,-227,3.8,-232.2C52.9,-237.5,105.8,-228,152.4,-201.9Z; M101.9,-120.6C144.2,-109.5,199.1,-96,223.6,-62.7C248.2,-29.4,242.5,23.8,220.4,65.3C198.2,106.8,159.7,136.8,120.2,173.1C80.7,209.4,40.4,252.2,-4.7,258.7C-49.8,265.2,-99.5,235.3,-119,192.5C-138.5,149.7,-127.8,93.8,-144.4,46.1C-161,-1.6,-205.1,-41.3,-214.9,-88C-224.7,-134.6,-200.2,-188.3,-158.7,-199.6C-117.2,-210.9,-58.6,-180,-14.4,-160.1C29.8,-140.3,59.6,-131.6,101.9,-120.6Z; M113.1,-161.5C148.6,-129.9,180.8,-99.5,181.6,-66.3C182.3,-33.1,151.5,3.1,132.4,37.1C113.2,71.2,105.7,103.2,85.6,142.9C65.4,182.7,32.7,230.4,-3.9,235.8C-40.6,241.2,-81.1,204.3,-114.7,168.9C-148.3,133.5,-175,99.5,-198.1,57.5C-221.3,15.5,-240.9,-34.6,-221,-64.4C-201.2,-94.2,-141.7,-103.7,-98.3,-132.8C-54.9,-161.8,-27.4,-210.4,5.7,-218.2C38.8,-226.1,77.6,-193.1,113.1,-161.5Z; M102,-143.7C138.9,-113.5,180.3,-92.8,196.8,-59.7C213.4,-26.7,205.1,18.6,190.6,61.5C176.1,104.4,155.4,144.8,122.5,162.7C89.7,180.5,44.9,175.8,-1.2,177.4C-47.2,179,-94.4,187,-113.8,164.8C-133.1,142.5,-124.6,90.1,-143.6,43.8C-162.6,-2.6,-209.2,-42.9,-216.4,-85.7C-223.7,-128.5,-191.5,-173.9,-148.8,-202.2C-106.2,-230.5,-53.1,-241.7,-10.3,-227.6C32.5,-213.4,65,-173.9,102,-143.7Z; M120.2,-176.8C149.6,-144.2,162.8,-100.7,175.5,-57.9C188.3,-15,200.7,27.1,195.6,70.1C190.6,113,168.2,156.8,132.7,178C97.2,199.1,48.6,197.5,4.9,190.8C-38.8,184.1,-77.6,172.1,-115.3,151.7C-153,131.3,-189.7,102.4,-205.6,64.2C-221.6,26.1,-216.8,-21.4,-204,-67.9C-191.2,-114.4,-170.2,-160,-134.9,-190.6C-99.5,-221.3,-49.8,-237.2,-2.2,-234.2C45.5,-231.2,90.9,-209.5,120.2,-176.8Z"
     keySplines="0.9 0.1 0.1 0.9;0.9 0.1 0.1 0.9;0.9 0.1 0.1 0.9;0.9 0.1 0.1 0.9;0.9 0.1 0.1 0.9"
     calcMode="spline"
     keyTimes="0; 0.2; 0.4; 0.6; 0.8; 1"
     attributeName="d"
     repeatCount="indefinite"
     dur="20s"
     attributeType="XML"
     xlink:href="#path" /><path
     id="path5"
     transform="translate(153.6 115.2) scale(0.7)"
     fill="#000000"
     d="m187.04 215.86l0.05 113.64 0.04 113.65h38.24l0.05-94.53 0.05-94.52h573.26v259.61h-234.84c-129.16 0-266.79 0.06-305.84 0.13l-71.01 0.13 0.05 19.04 0.05 19.03 324.91 0.05 324.91 0.05v-336.27l-324.96-0.01h-324.96zm250.81 110.89v7.07h-0.22c-0.12 0-0.42 0.01-0.67 0.03-0.24 0.01-0.66 0.04-0.92 0.07-0.26 0.02-0.64 0.07-0.86 0.11-0.21 0.03-0.53 0.08-0.69 0.11-0.17 0.04-0.49 0.11-0.71 0.16s-0.6 0.15-0.84 0.22-0.61 0.19-0.82 0.26c-0.22 0.07-0.55 0.19-0.74 0.27s-0.47 0.19-0.61 0.26c-0.15 0.06-0.4 0.18-0.56 0.25-0.17 0.08-0.46 0.23-0.67 0.34-0.2 0.11-0.55 0.31-0.77 0.44-0.23 0.14-0.6 0.37-0.82 0.52s-0.56 0.4-0.76 0.55c-0.21 0.15-0.48 0.37-0.62 0.48-0.13 0.12-0.38 0.33-0.55 0.49-0.17 0.15-0.49 0.45-0.71 0.67s-0.54 0.56-0.72 0.76c-0.17 0.21-0.4 0.48-0.51 0.61-0.1 0.13-0.29 0.36-0.4 0.52-0.12 0.16-0.34 0.46-0.49 0.68s-0.36 0.55-0.47 0.74c-0.11 0.18-0.3 0.51-0.42 0.73s-0.3 0.56-0.39 0.76c-0.1 0.2-0.24 0.51-0.32 0.69-0.08 0.19-0.19 0.46-0.25 0.61s-0.17 0.47-0.25 0.71c-0.09 0.25-0.21 0.63-0.27 0.86-0.07 0.23-0.16 0.61-0.21 0.83-0.06 0.23-0.13 0.56-0.16 0.74s-0.08 0.51-0.12 0.73c-0.03 0.23-0.07 0.58-0.09 0.8-0.02 0.21-0.04 0.44-0.05 0.5-0.01 0.07-0.02 5.32-0.03 11.67l-0.02 11.55-0.04 0.32c-0.02 0.17-0.07 0.48-0.1 0.68s-0.11 0.55-0.16 0.78c-0.06 0.23-0.16 0.58-0.23 0.79s-0.18 0.49-0.23 0.62c-0.06 0.14-0.18 0.41-0.27 0.61-0.1 0.19-0.25 0.48-0.33 0.63-0.09 0.16-0.25 0.42-0.36 0.59-0.11 0.16-0.3 0.42-0.41 0.57-0.11 0.16-0.31 0.4-0.44 0.55s-0.37 0.41-0.53 0.57-0.42 0.39-0.57 0.52c-0.14 0.13-0.4 0.34-0.57 0.47s-0.43 0.31-0.58 0.41c-0.15 0.09-0.39 0.24-0.54 0.33-0.15 0.08-0.38 0.2-0.51 0.27-0.14 0.07-0.39 0.18-0.57 0.26s-0.42 0.17-0.54 0.21c-0.12 0.05-0.33 0.12-0.47 0.16-0.14 0.05-0.4 0.12-0.58 0.16-0.17 0.05-0.47 0.11-0.65 0.15-0.18 0.03-0.5 0.08-0.72 0.1-0.22 0.03-0.57 0.05-0.8 0.06l-0.4 0.02v-7.08h-21.23v21.23h21.23v-7.08h0.22c0.12 0 0.42-0.01 0.67-0.03 0.26-0.01 0.67-0.04 0.92-0.07 0.26-0.02 0.64-0.07 0.85-0.1 0.22-0.04 0.58-0.1 0.8-0.14 0.23-0.05 0.59-0.13 0.79-0.18 0.21-0.05 0.51-0.13 0.68-0.18 0.16-0.05 0.5-0.16 0.76-0.25 0.26-0.08 0.65-0.23 0.86-0.31 0.21-0.09 0.55-0.23 0.76-0.32 0.2-0.09 0.53-0.26 0.73-0.36s0.53-0.28 0.72-0.39c0.2-0.11 0.47-0.28 0.61-0.37 0.15-0.09 0.41-0.26 0.59-0.39 0.19-0.12 0.46-0.32 0.62-0.43 0.15-0.12 0.39-0.3 0.52-0.41 0.13-0.1 0.4-0.33 0.6-0.51 0.2-0.17 0.53-0.49 0.73-0.69 0.21-0.2 0.49-0.49 0.63-0.64 0.14-0.16 0.38-0.44 0.54-0.63s0.41-0.51 0.57-0.72c0.15-0.21 0.39-0.53 0.52-0.73 0.13-0.19 0.34-0.53 0.48-0.76s0.34-0.58 0.44-0.78c0.11-0.2 0.27-0.5 0.34-0.66 0.08-0.16 0.19-0.42 0.26-0.56 0.06-0.15 0.18-0.42 0.25-0.62 0.08-0.19 0.2-0.52 0.27-0.73 0.08-0.22 0.19-0.59 0.26-0.83s0.17-0.62 0.23-0.84c0.05-0.23 0.13-0.61 0.18-0.85 0.04-0.24 0.1-0.6 0.12-0.8 0.03-0.19 0.07-0.51 0.09-0.71 0.02-0.21 0.04-0.57 0.06-0.82 0.01-0.29 0.02-4.34 0.02-11.46 0-7.21 0.01-11.14 0.02-11.36 0.02-0.19 0.04-0.47 0.06-0.62 0.02-0.16 0.06-0.4 0.09-0.55 0.02-0.14 0.07-0.38 0.1-0.52 0.04-0.14 0.11-0.42 0.17-0.62 0.06-0.21 0.15-0.48 0.2-0.61s0.14-0.37 0.21-0.53 0.2-0.45 0.3-0.63c0.09-0.19 0.26-0.49 0.36-0.67 0.11-0.18 0.29-0.45 0.39-0.6 0.11-0.15 0.31-0.42 0.44-0.58 0.14-0.17 0.37-0.44 0.51-0.59s0.37-0.38 0.51-0.51c0.14-0.14 0.37-0.34 0.51-0.45 0.13-0.11 0.4-0.32 0.6-0.46s0.51-0.35 0.69-0.46 0.53-0.29 0.77-0.41c0.25-0.12 0.58-0.27 0.73-0.34 0.16-0.06 0.44-0.16 0.63-0.22 0.19-0.07 0.53-0.17 0.77-0.22 0.23-0.06 0.57-0.13 0.76-0.17 0.19-0.03 0.49-0.07 0.68-0.09 0.18-0.02 0.5-0.04 0.72-0.05l0.4-0.02v7.09h21.23v-21.23h-10.62-10.61zm-169.77 3.74l-5.63 63h18l2-22.63h2.38l0.06 0.13h-0.06l10.75 22.62h20.87l-0.06-0.12h0.06l-11.5-24.13c10-3 15.25-10.75 15.25-20.37 0-9.13-7.37-18.5-17.75-18.5h-16.37-5.5-12.5zm65.84 0l-1.21 13.5h-0.04l-4.38 49.5h18l2-22.63h11.5c17.13 0 26.25-9.5 26.25-22 0-9-7.37-18.37-17.75-18.37h-16.37-5.5-12.5zm175.85 0l-1.25 13.5h18l-4.38 49.5h18 0.13l4.37-49.5h17.88l1.25-13.5h-18-18-18zm64.1 0l-1.12 13.5-4.38 49.5h18 27.13l1.25-13.5h-27.13l1-11.25h17.75l1.25-13.5h-17.87l1-11.25h26.87l1.25-13.5h-26.87-18.13zm72.34 0l-24.75 63h19.12l4-11.13h19.38l2 11.13h18.75l-13.5-63h-8.25-8.63-8.12zm54.19 0l-5.62 63h18l3.75-41.25 4.5 41.25h13.5l11.5-41.13-3.63 41.13h18l5.63-63h-13.88-4.12-4.63l-11.12 39.87-3.88-39.87h-9.87-4.38-13.75zm-255.47 3.33h3.53 3.54v7.08h-7.07v-7.08zm-94.14 10.17h11.63c3.12 0 5.75 3.25 5.75 6-0.13 2.62-2.38 7.37-7.38 7.37h-11.25l1.25-13.37zm-54.34 0.12c3.13 0 5.75 3.25 5.75 6s-2.25 7.5-7.25 7.5h-11.25l1.25-13.37h11.5v-0.13zm360.88 2.25l4.13 22.5h-12.13l8-22.5zm-261.94 37h3.53 3.54v7.08h-7.07v-7.08zm228.63 21.95v20.57h3.19v-0.56-20.01h-3.19zm37.66 0.66c-0.47 0-0.92 0.17-1.26 0.49-0.38 0.36-0.53 0.88-0.53 1.44s0.15 1.08 0.52 1.45l0.01 0.01c0.33 0.32 0.79 0.49 1.26 0.49 0.46 0 0.91-0.17 1.24-0.48l0.01-0.01c0.38-0.37 0.53-0.89 0.53-1.46 0-0.56-0.15-1.09-0.54-1.44-0.33-0.32-0.78-0.49-1.24-0.49zm-64.65 0.25c-1.83 0-3.37 0.44-4.55 1.37s-1.8 2.25-1.8 3.8c0 1.44 0.41 2.69 1.23 3.63 0.83 0.95 2.13 1.7 3.88 2.32 1.2 0.43 2.09 0.81 2.62 1.12h0.01c0.54 0.32 0.89 0.64 1.07 0.94l0.01 0.01c0.18 0.29 0.29 0.69 0.29 1.25 0 0.81-0.26 1.35-0.85 1.8-0.57 0.43-1.52 0.69-2.86 0.69-0.83 0-1.66-0.09-2.51-0.27-0.85-0.17-1.63-0.41-2.35-0.72l-0.77-0.32v3.24l0.31 0.16c1.29 0.61 3.03 0.89 5.24 0.89 2.09 0 3.81-0.47 5.1-1.47s1.96-2.46 1.96-4.2c0-1.36-0.41-2.54-1.23-3.43-0.83-0.91-2.22-1.65-4.17-2.35-1.13-0.4-1.95-0.77-2.45-1.07-0.49-0.3-0.81-0.62-0.98-0.91-0.17-0.3-0.28-0.72-0.28-1.28 0-0.72 0.23-1.18 0.73-1.57 0.51-0.38 1.26-0.61 2.3-0.61 1.34 0 2.73 0.3 4.18 0.91l0.55 0.23 1.04-2.9-0.48-0.21c-1.6-0.7-3.36-1.05-5.24-1.05zm-266.4 0.26v19.4h3.25v-7.6h2.93l4.42 7.6h2.84l0.48-0.85-4.65-7.7c2.19-0.98 3.44-2.75 3.44-5.13 0-1.84-0.61-3.33-1.82-4.31-1.22-0.98-3-1.41-5.31-1.41h-5.58zm153.5 0v19.4h3.25v-7.19h1.59c2.43 0 4.37-0.51 5.76-1.61 1.4-1.1 2.11-2.74 2.11-4.71 0-1.9-0.65-3.44-1.93-4.44s-3.12-1.45-5.48-1.45h-5.3zm-105.44 1.4l-0.92 3.08-2.06 0.9v1.93h1.96v7.59c0 1.48 0.36 2.69 1.15 3.52 0.79 0.84 1.96 1.23 3.39 1.23 0.38 0 0.8-0.04 1.25-0.12h0.01c0.47-0.08 0.84-0.17 1.15-0.31l0.32-0.16v-2.68l-0.72 0.21c-0.16 0.04-0.41 0.1-0.73 0.15h-0.01c0 0.01 0 0.01-0.01 0.01-0.31 0.04-0.63 0.06-0.97 0.06-0.56 0-0.91-0.15-1.19-0.47-0.28-0.31-0.44-0.79-0.44-1.53v-7.5h3.97v-2.73h-3.97v-3.18h-2.18zm89 0l-0.92 3.08-2.06 0.9v1.93h1.96v7.59c0 1.48 0.36 2.69 1.15 3.52 0.79 0.84 1.96 1.23 3.39 1.23 0.38 0 0.8-0.04 1.25-0.12h0.01c0.47-0.08 0.84-0.17 1.15-0.31l0.32-0.16v-2.68l-0.72 0.21c-0.16 0.04-0.41 0.1-0.73 0.15h-0.01c0 0.01 0 0.01-0.01 0.01-0.31 0.04-0.63 0.06-0.97 0.06-0.56 0-0.91-0.15-1.19-0.47-0.28-0.31-0.44-0.79-0.44-1.53v-7.5h3.97v-2.73h-3.97v-3.18h-2.18zm62.2 0l-0.92 3.08-2.06 0.9v1.93h1.96v7.59c0 1.48 0.36 2.69 1.15 3.52 0.79 0.84 1.96 1.23 3.38 1.23 0.39 0 0.81-0.04 1.26-0.12h0.02c0.46-0.08 0.83-0.17 1.14-0.31l0.32-0.16v-2.68l-0.72 0.21c-0.16 0.04-0.41 0.1-0.73 0.15h-0.01c-0.31 0.05-0.64 0.07-0.97 0.07-0.57 0-0.91-0.15-1.2-0.47-0.28-0.31-0.45-0.79-0.45-1.53v-7.5h3.98v-2.73h-3.98v-3.18h-2.17zm120.7 0l-0.92 3.08-2.06 0.9v1.93h1.96v7.59c0 1.48 0.36 2.69 1.15 3.52 0.79 0.84 1.96 1.23 3.39 1.23 0.38 0 0.8-0.04 1.25-0.12h0.02c0.46-0.08 0.83-0.17 1.14-0.31l0.32-0.16v-2.68l-0.72 0.21c-0.16 0.04-0.41 0.1-0.73 0.15h-0.01c0 0.01 0 0.01-0.01 0.01-0.31 0.04-0.63 0.06-0.97 0.06-0.56 0-0.9-0.15-1.19-0.47-0.28-0.31-0.44-0.79-0.44-1.53v-7.5h3.97v-2.73h-3.97v-3.18h-2.18zm-163.21 1.56h1.81c1.61 0 2.73 0.3 3.37 0.77 0.64 0.49 0.96 1.17 0.96 2.26 0 1.22-0.35 1.97-1.03 2.47-0.68 0.49-1.94 0.8-3.76 0.8h-1.35v-6.3zm-153.5 0.02h2.2c1.51 0 2.54 0.28 3.09 0.69s0.85 1.07 0.85 2.17c0 1.08-0.29 1.78-0.85 2.26-0.55 0.46-1.51 0.75-2.94 0.75h-2.35v-5.87zm19.7 1.35c-1.97 0-3.63 0.73-4.82 2.15-1.18 1.42-1.75 3.32-1.75 5.62 0 2.29 0.62 4.17 1.9 5.52 1.29 1.35 3.07 2.03 5.21 2.03 0.95 0 1.77-0.08 2.48-0.23 0.7-0.14 1.43-0.38 2.19-0.71l0.34-0.14v-3.07l-0.78 0.33c-1.38 0.59-2.76 0.88-4.16 0.88-1.29 0-2.19-0.36-2.85-1.07-0.55-0.6-0.86-1.53-0.97-2.72h9.34v-1.87c0-1.95-0.54-3.6-1.64-4.83-1.1-1.26-2.65-1.89-4.49-1.89zm14.92 0c-1.66 0-3.03 0.34-4.06 1.08-1.03 0.73-1.59 1.82-1.59 3.09 0 0.7 0.14 1.34 0.46 1.89v0.01c0.32 0.53 0.78 0.99 1.37 1.39l0.01 0.01c0.61 0.39 1.54 0.81 2.83 1.29 1.32 0.5 2.19 0.96 2.54 1.25v0.01h0.01c0.36 0.29 0.49 0.56 0.49 0.93 0 0.55-0.17 0.84-0.6 1.1-0.46 0.26-1.19 0.43-2.22 0.43-0.65 0-1.33-0.08-2.05-0.26-0.71-0.19-1.37-0.43-1.99-0.75l-0.82-0.41v3.16l0.29 0.16c1.14 0.65 2.65 0.94 4.52 0.94 1.79 0 3.25-0.36 4.33-1.15s1.66-1.99 1.66-3.4c0-1.02-0.35-1.94-1.02-2.65-0.69-0.72-1.84-1.32-3.5-1.92-1.17-0.44-1.97-0.78-2.32-0.98-0.37-0.21-0.61-0.41-0.73-0.58-0.11-0.15-0.17-0.34-0.17-0.61 0-0.37 0.11-0.56 0.48-0.8 0.36-0.22 1.01-0.37 1.94-0.37 1.02 0 2.19 0.26 3.52 0.8l0.51 0.21 1.18-2.71-0.52-0.22c-1.47-0.62-3-0.94-4.55-0.94zm59.63 0c-0.96 0-1.87 0.28-2.67 0.82-0.47 0.31-0.8 0.85-1.18 1.31l-0.18-1.88h-2.78v14.82h3.2v-7.91c0-1.23 0.34-2.2 1.03-3 0.71-0.8 1.47-1.16 2.43-1.16 0.38 0 0.84 0.06 1.38 0.18l0.59 0.13 0.45-3.05-0.52-0.1c-0.53-0.11-1.11-0.16-1.75-0.16zm28.12 0c-1.01 0-1.95 0.2-2.8 0.61-0.53 0.26-0.86 0.71-1.25 1.1l-0.26-1.46h-2.72v14.82h3.19v-7.75c0-1.71 0.34-2.86 0.87-3.47 0.54-0.63 1.39-0.97 2.72-0.97 0.99 0 1.61 0.24 1.98 0.64 0.38 0.42 0.62 1.09 0.62 2.12v9.43h0.55 2.64v-9.5c0-1.84-0.44-3.28-1.42-4.22-0.97-0.93-2.38-1.35-4.12-1.35zm67.23 0c-0.96 0-1.87 0.28-2.68 0.82-0.46 0.31-0.79 0.85-1.17 1.31l-0.18-1.88h-2.78v14.82h3.2v-7.91c0-1.23 0.34-2.2 1.03-3 0.71-0.8 1.47-1.16 2.43-1.16 0.38 0 0.84 0.06 1.38 0.18l0.58 0.13 0.46-3.05-0.52-0.1c-0.53-0.11-1.11-0.16-1.75-0.16zm22.92 0c-1.01 0-1.95 0.2-2.8 0.61-0.53 0.26-0.86 0.71-1.25 1.1l-0.26-1.46h-2.72v14.82h3.19v-7.75c0-1.71 0.34-2.86 0.87-3.47 0.54-0.63 1.39-0.97 2.72-0.97 0.99 0 1.61 0.24 1.98 0.64 0.38 0.42 0.61 1.09 0.61 2.12v9.43h0.56 2.64v-9.5c0-1.84-0.44-3.28-1.42-4.22-0.97-0.93-2.38-1.35-4.12-1.35zm16.08 0c-1.97 0-3.62 0.73-4.82 2.15-1.18 1.42-1.75 3.32-1.75 5.62 0 2.29 0.62 4.17 1.9 5.52 1.29 1.35 3.07 2.03 5.21 2.03 0.95 0 1.77-0.08 2.47-0.23h0.01c0.7-0.14 1.43-0.38 2.19-0.71l0.34-0.14v-3.07l-0.78 0.33c-1.38 0.59-2.76 0.88-4.16 0.88-1.29 0-2.19-0.36-2.85-1.07-0.55-0.6-0.86-1.53-0.97-2.72h9.35v-1.87c0-1.95-0.55-3.6-1.65-4.83v-0.01c-1.1-1.25-2.65-1.88-4.49-1.88zm16.95 0c-0.96 0-1.87 0.28-2.68 0.82-0.46 0.31-0.79 0.85-1.17 1.31l-0.18-1.88h-2.78v14.82h3.19v-7.91c0-1.23 0.35-2.2 1.04-3 0.71-0.8 1.47-1.16 2.43-1.16 0.38 0 0.84 0.06 1.38 0.18l0.58 0.13 0.46-3.05-0.52-0.1c-0.53-0.11-1.11-0.16-1.75-0.16zm33.66 0c-2.1 0-3.84 0.68-5.06 2.06-1.23 1.36-1.82 3.26-1.82 5.58 0 1.51 0.27 2.86 0.83 4.02 0.55 1.16 1.37 2.08 2.41 2.71s2.24 0.95 3.55 0.95c2.1 0 3.85-0.69 5.08-2.06v-0.01c1.24-1.38 1.83-3.28 1.83-5.61 0-2.27-0.6-4.15-1.84-5.54-1.23-1.4-2.94-2.1-4.98-2.1zm61.2 0c-2.1 0-3.84 0.69-5.06 2.06-1.23 1.36-1.82 3.26-1.82 5.58 0 1.51 0.27 2.86 0.83 4.02s1.37 2.08 2.41 2.71 2.24 0.95 3.56 0.95c2.1 0 3.84-0.69 5.07-2.06v-0.01h0.01c1.23-1.38 1.83-3.28 1.83-5.61 0-2.27-0.61-4.15-1.84-5.54h-0.01c-1.23-1.4-2.94-2.1-4.98-2.1zm17.96 0c-1.01 0-1.95 0.2-2.8 0.61-0.53 0.26-0.86 0.71-1.25 1.1l-0.26-1.46h-2.72v14.82h3.19v-7.75c0-1.71 0.34-2.86 0.87-3.47 0.54-0.63 1.39-0.97 2.72-0.97 0.99 0 1.61 0.24 1.98 0.64 0.38 0.42 0.62 1.09 0.62 2.12v9.43h0.55 2.64v-9.5c0-1.84-0.44-3.28-1.42-4.22-0.97-0.93-2.38-1.35-4.12-1.35zm-298.37 0.02c-0.86 0-1.71 0.11-2.57 0.33-0.84 0.22-1.62 0.52-2.34 0.91l-0.43 0.24 1.04 2.61 0.54-0.26c1.39-0.68 2.61-1 3.63-1 0.93 0 1.48 0.23 1.8 0.59v0.01c0.34 0.36 0.56 1 0.56 2v0.3l-1.79 0.06c-2.27 0.07-4.02 0.47-5.26 1.28-1.25 0.81-1.92 2.1-1.92 3.63 0 1.4 0.44 2.59 1.34 3.4 0.89 0.81 2.12 1.2 3.57 1.2 1.08 0 2-0.16 2.77-0.5 0.55-0.25 1.05-0.81 1.55-1.31l0.33 1.56h0.45 2.1v-9.91c0-1.69-0.42-3.04-1.37-3.9-0.92-0.86-2.28-1.24-4-1.24zm45.2 0c-0.86 0-1.71 0.11-2.56 0.33h-0.01c-0.84 0.22-1.62 0.52-2.33 0.91l-0.44 0.24 1.04 2.61 0.54-0.26c1.39-0.68 2.61-1 3.64-1 0.92 0 1.47 0.23 1.79 0.59v0.01c0.34 0.36 0.56 1 0.56 2v0.3l-1.79 0.06c-2.27 0.07-4.02 0.47-5.26 1.28-1.25 0.81-1.91 2.1-1.91 3.63 0 1.4 0.43 2.59 1.33 3.4s2.12 1.2 3.57 1.2c1.08 0 2-0.16 2.77-0.5 0.55-0.25 1.05-0.8 1.55-1.31l0.33 1.56h0.46 2.09v-9.91c0-1.69-0.43-3.04-1.37-3.9-0.92-0.86-2.29-1.24-4-1.24zm67.45 0c-0.86 0-1.71 0.11-2.57 0.33-0.84 0.22-1.62 0.52-2.34 0.91l-0.43 0.24 1.04 2.61 0.54-0.26c1.39-0.68 2.61-1 3.63-1 0.93 0 1.48 0.23 1.8 0.59l0.01 0.01c0.33 0.36 0.55 1 0.55 2v0.3l-1.79 0.06c-2.27 0.07-4.02 0.47-5.26 1.28-1.25 0.81-1.92 2.1-1.92 3.63 0 1.4 0.44 2.59 1.34 3.4 0.89 0.81 2.12 1.2 3.58 1.2 1.07 0 1.99-0.16 2.76-0.5 0.55-0.25 1.04-0.8 1.55-1.31l0.33 1.56h0.45 2.1v-9.91c0-1.69-0.42-3.04-1.36-3.9-0.93-0.86-2.29-1.24-4.01-1.24zm-102.66 0.23v9.52c0 1.83 0.44 3.27 1.41 4.2v0.01c0.97 0.92 2.38 1.34 4.14 1.34 1.03 0 1.98-0.2 2.81-0.6 0.52-0.24 0.85-0.69 1.24-1.08l0.23 1.43h2.75v-14.82h-3.19v7.76c0 1.7-0.34 2.85-0.87 3.47-0.53 0.63-1.38 0.98-2.71 0.98-0.99 0-1.6-0.24-1.98-0.65s-0.61-1.08-0.61-2.12v-9.44h-0.56-2.66zm228.1 0v9.52c0 1.83 0.44 3.27 1.41 4.2v0.01c0.97 0.92 2.38 1.34 4.14 1.34 1.03 0 1.98-0.2 2.81-0.6 0.52-0.24 0.85-0.69 1.24-1.08l0.23 1.43h2.75v-14.82h-3.19v7.76c0 1.7-0.34 2.85-0.87 3.47-0.53 0.63-1.38 0.98-2.71 0.98-0.99 0-1.6-0.24-1.98-0.65s-0.61-1.08-0.61-2.12v-9.44h-0.56-2.66zm28.1 0v14.82h3.2v-0.56-14.26h-3.2zm-306.52 2.6c0.97 0 1.6 0.28 2.07 0.85l0.01 0.01c0.37 0.44 0.49 1.23 0.58 2.07h-5.65c0.16-0.79 0.35-1.57 0.77-2.03v-0.01c0.55-0.6 1.25-0.89 2.22-0.89zm208.91 0c0.96 0 1.59 0.28 2.07 0.85v0.01c0.37 0.44 0.49 1.23 0.58 2.07h-5.65c0.16-0.79 0.35-1.57 0.77-2.03v-0.01c0.56-0.6 1.25-0.89 2.23-0.89zm50.57 0.03c1.25 0 2.08 0.37 2.67 1.14v0.01c0.6 0.76 0.94 1.95 0.94 3.62 0 1.68-0.34 2.89-0.94 3.66v0.01c-0.59 0.77-1.41 1.14-2.65 1.14-1.23 0-2.04-0.38-2.64-1.15-0.59-0.78-0.93-1.99-0.93-3.66 0-1.7 0.33-2.9 0.92-3.65 0.58-0.75 1.39-1.12 2.63-1.12zm61.2 0c1.25 0 2.08 0.37 2.67 1.14v0.01c0.6 0.76 0.95 1.95 0.95 3.62 0 1.68-0.35 2.89-0.95 3.66v0.01c-0.59 0.77-1.41 1.14-2.65 1.14-1.23 0-2.04-0.38-2.64-1.15-0.59-0.78-0.93-1.99-0.93-3.66 0-1.7 0.34-2.9 0.92-3.65s1.39-1.12 2.63-1.12zm-278.17 5.47v0.66c0 1.16-0.32 1.97-0.94 2.57-0.62 0.59-1.46 0.9-2.65 0.9-0.73 0-1.22-0.17-1.55-0.45-0.31-0.28-0.48-0.65-0.48-1.29 0-0.81 0.25-1.28 0.82-1.63 0.59-0.37 1.7-0.64 3.3-0.69l1.5-0.07zm45.2 0v0.66c0 1.16-0.32 1.97-0.94 2.57-0.62 0.59-1.46 0.9-2.65 0.9-0.73 0-1.22-0.17-1.55-0.45-0.31-0.28-0.48-0.65-0.48-1.29 0-0.81 0.25-1.28 0.82-1.63 0.59-0.37 1.7-0.64 3.3-0.69l1.5-0.07zm67.45 0v0.66c0 1.16-0.32 1.97-0.94 2.57-0.62 0.59-1.46 0.9-2.65 0.9-0.73 0-1.22-0.17-1.55-0.45-0.31-0.28-0.48-0.65-0.48-1.29 0-0.81 0.25-1.28 0.82-1.63 0.59-0.37 1.7-0.64 3.3-0.69l1.5-0.07z" /></svg>